<?xml version="1.0" encoding="utf-8"?>
<!-- Generator: Adobe Illustrator 23.0.0, SVG Export Plug-In . SVG Version: 6.00 Build 0)  -->
<svg version="1.1" id="Layer_1" xmlns="http://www.w3.org/2000/svg" xmlns:xlink="http://www.w3.org/1999/xlink" x="0px" y="0px"
	 viewBox="0 0 612 792" style="enable-background:new 0 0 612 792;" xml:space="preserve">
<style type="text/css">
	.st0{fill:#16151F;}
	.st1{fill:#181927;}
	.st2{fill:#191D2F;}
	.st3{fill:#1A2137;}
	.st4{fill:#1B253F;}
	.st5{fill:#1B2948;}
	.st6{fill:#1B243D;}
	.st7{fill:#1A2032;}
	.st8{fill:#181B27;}
	.st9{fill:#16171D;}
	.st10{fill:#121212;}
	.st11{fill-rule:evenodd;clip-rule:evenodd;fill:#121212;}
</style>
<rect y="-1" class="st0" width="612" height="306"/>
<g>
	<path class="st1" d="M185.9,269c-41.8-8.3-85.5-12.3-128.3-7.4c-19.6,2.2-38.9,6.3-57.6,12.8V305h322.8
		c-44.3-12.7-88.3-26-133-35.3C188.5,269.5,187.2,269.2,185.9,269z"/>
	<path class="st2" d="M612-1H0v275.3c18.7-6.4,38.1-10.6,57.6-12.8c42.8-4.9,86.4-0.9,128.3,7.4c1.3,0.3,2.6,0.5,3.9,0.8
		c44.7,9.2,88.6,22.6,133,35.3H612V-1z"/>
	<path class="st3" d="M183,221.2c1.2,0.3,2.4,0.7,3.6,1c75,20.1,148.7,51.1,227,67.5c66.6,14,133.7,11.2,198.4-3.9V-1H0v219.9
		c20-6.7,40.7-10.6,61.6-11.8C102.7,204.6,143.7,211,183,221.2z"/>
	<path class="st4" d="M0-1v164.2c21.3-7,43.4-10.4,65.6-10.6c39.3-0.3,77.7,8.7,114.5,20.8c1.1,0.4,2.3,0.8,3.4,1.1
		c70.2,23.7,139.9,55.9,215.1,73.5c71.4,16.7,143.9,13.2,213.4-4.8V-1H0z"/>
	<path class="st5" d="M69.5,98.2c37.6,2.3,73.4,13.5,107.6,27.6c1.1,0.4,2.1,0.9,3.2,1.3c65.4,27.4,131.1,60.6,203.2,79.4
		c76,19.8,154.3,15.6,228.5-5.7V-1H0v108.3C22.6,99.8,46.1,96.8,69.5,98.2z"/>
	<path class="st6" d="M612-1H92.7H79.4h-23H0v52.1c23.8-8,48.8-10.5,73.5-7.3c35.8,4.6,69,18.2,100.7,34.3c1,0.5,2,1,2.9,1.5
		c60.6,31,122.3,65.4,191.4,85.4c80.5,23.3,164.8,18.7,243.5-6.3L612-1L612-1z"/>
	<path class="st7" d="M174,32c55.8,34.7,113.5,70,179.5,91.3c79.8,25.8,165,23.3,244-2c4.9-1.6,9.7-3.2,14.6-4.9V-1H110.2
		c21.4,8.1,41.6,19.4,61.1,31.4C172.2,30.9,173.1,31.5,174,32z"/>
	<path class="st8" d="M612-1H190.5c45.2,32.8,93.1,62.9,148,82.7c73.4,26.5,153,28.6,227.6,8.1c15.6-4.3,31-9.6,46-16L612-1L612-1z"
		/>
	<path class="st9" d="M534.5,58.2c18.1-4.1,35.8-9.7,53-16.8c8.3-3.4,16.4-7.2,24.4-11.3V-1H246.1c24.1,16,49.6,29.9,77.3,41.1
		C390.3,67.1,464.4,74,534.5,58.2z"/>
	<path class="st10" d="M503.1,26.7c28.8-4.8,57-14.2,82.9-27.7H309.5C369.8,26.2,437.8,37.6,503.1,26.7z"/>
</g>
<path class="st6" d="M57,246"/>
<path class="st6" d="M9,218.5"/>
<path class="st11" d="M-422,296.1c239.7-50.6,479.1-75.9,718.5-75.9s479.8,25.3,721.5,75.9v25.3H-422V296.1z"/>
</svg>
